<svg width="7" height="12" viewBox="0 0 7 12" fill="none" xmlns="http://www.w3.org/2000/svg">
<g id="Frame" clip-path="url(#clip0_5_200)">
<path id="Vector" d="M0.920963 12.0001C0.572712 11.881 0.36072 11.5933 0.134128 11.3323C-0.0510987 11.119 -0.0322415 10.7731 0.144165 10.5513C0.185225 10.4998 0.23176 10.4523 0.278295 10.4055C1.69989 8.97288 3.12179 7.54058 4.5446 6.10891C4.57714 6.07612 4.61912 6.05345 4.66261 6.02159C4.60969 5.96552 4.57897 5.93182 4.54703 5.89935C3.11388 4.45572 1.68103 3.0124 0.248489 1.56877C-0.00699702 1.31142 -0.0845551 0.994016 0.106147 0.73605C0.281641 0.498917 0.500933 0.284763 0.734215 0.10431C0.953507 -0.0651145 1.24914 -0.0151757 1.4663 0.164052C1.49915 0.191319 1.53078 0.220118 1.56089 0.250449C3.29272 1.99432 5.02424 3.7385 6.75546 5.48299C7.0149 5.74432 7.07147 6.04886 6.90815 6.33072C6.86769 6.40027 6.81203 6.46277 6.75485 6.52036C5.02424 8.26546 3.29363 10.0106 1.55816 11.7505C1.45292 11.8558 1.3048 11.918 1.17645 12.0001H0.920659H0.920963Z" fill="white"/>
</g>
<defs>
<clipPath id="clip0_5_200">
<rect width="7" height="12" fill="white"/>
</clipPath>
</defs>
</svg>
